<?xml version="1.0" encoding="utf-8"?>
<!-- Generator: Adobe Illustrator 25.2.0, SVG Export Plug-In . SVG Version: 6.00 Build 0)  -->
<svg version="1.1" id="type" xmlns="http://www.w3.org/2000/svg" xmlns:xlink="http://www.w3.org/1999/xlink" x="0px" y="0px"
	 viewBox="0 0 135 135" width="135px" height="135px" enable-background="new 0 0 135 135" xml:space="preserve">
<circle fill="#FFFFFF" cx="67.5" cy="67.5" r="66.9"/>
<path fill="#A29FA2" d="M67.5,1.19c36.6,0,66.31,29.65,66.31,66.31s-29.71,66.31-66.31,66.31S1.19,104.1,1.19,67.5l0,0
	C1.26,30.9,30.9,1.26,67.5,1.19 M67.5,0C30.24,0,0,30.24,0,67.5S30.24,135,67.5,135S135,104.76,135,67.5S104.76,0,67.5,0z"/>
<path fill="#A29FA2" d="M71.21,82.46l-5.29,21.24c-0.13,0.26-0.4,0.4-0.73,0.33c-0.2-0.07-0.4-0.33-0.33-0.53l-1.19-21.84
	l-11.05,6.75c-0.26,0.13-0.6,0.07-0.73-0.26c-0.13-0.2-0.07-0.46,0.07-0.6l5.36-8.4L31.3,81.86c-0.26,0.07-0.53-0.13-0.6-0.4
	c-0.07-0.26,0.07-0.6,0.33-0.66l19.79-8.14l-18.6-3.04c-0.26-0.07-0.46-0.33-0.4-0.6c0.07-0.26,0.26-0.46,0.6-0.46l24.29-1.46
	L44.34,42.95c-0.13-0.26-0.07-0.53,0.13-0.73c0.2-0.2,0.53-0.13,0.73,0.07l19.79,19.26l5.16-33.09c0-0.33,0.26-0.53,0.6-0.53
	s0.53,0.26,0.53,0.6l1.12,33.22l6.82-7.28c0.2-0.2,0.53-0.26,0.79,0c0.13,0.13,0.2,0.33,0.13,0.53l-0.13,7.74l20.18-9.2
	c0.26-0.13,0.53,0,0.66,0.2c0.13,0.26,0.13,0.53-0.13,0.73L80.34,70.74l14.23,7.81c0.26,0.13,0.33,0.4,0.26,0.66
	c-0.07,0.26-0.33,0.4-0.6,0.4l-14.76-0.4l15.29,22.7c18.86-14.96,21.97-42.42,7.01-61.21s-42.49-21.97-61.35-7.01
	S18.46,76.1,33.49,94.9c14.03,17.67,39.24,21.71,58.1,9.26L71.21,82.46z"/>
<path d="M24.15,93.77l-0.73,0.73c0.93,0,1.79,0.46,2.32,1.26c0.53,0.73,0.73,1.59,0.53,2.38c-0.2,1.19-1.06,2.05-2.32,2.91
	c-1.12,0.79-2.32,1.32-3.57,1.06c-0.86-0.2-1.59-0.66-2.05-1.39c-0.53-0.73-0.73-1.65-0.6-2.58c0.13-0.6,0.46-1.19,0.99-1.52
	l0.66,0.93c-0.26,0.2-0.46,0.53-0.6,0.86c-0.13,0.6,0,1.26,0.4,1.79c0.33,0.46,0.86,0.79,1.39,0.93c0.99,0.2,1.99-0.46,2.71-0.93
	s1.72-1.26,1.92-2.25c0.13-0.6,0-1.19-0.33-1.65c-0.33-0.46-0.79-0.86-1.39-0.99c-0.79-0.13-1.59,0.13-2.25,0.6l1.32,1.92l-0.86,0.6
	l-1.92-2.71l3.84-2.58L24.15,93.77z"/>
<path d="M21.31,87.95c0.79,1.79,0.2,3.38-1.72,4.24l-4.96,2.18l-0.46-0.99l5.03-2.25c1.26-0.53,1.85-1.46,1.26-2.78
	c-0.6-1.32-1.65-1.52-2.91-0.99l-5.03,2.25l-0.46-0.99l4.96-2.18C18.99,85.5,20.58,86.16,21.31,87.95z"/>
<path d="M18.99,81.99l-8.27,2.38l-0.33-1.06l8.27-2.38L18.99,81.99z"/>
<path d="M16.21,72.46c0.66,0.53,1.06,1.26,1.19,2.12l0.4,2.98l-8.54,1.19l-0.4-2.98c-0.13-0.79,0.07-1.65,0.53-2.38
	c0.73-1.06,1.99-1.39,3.24-1.59S15.15,71.67,16.21,72.46z M10.19,74.05c-0.33,0.46-0.46,1.06-0.4,1.59l0.26,1.92l6.55-0.93
	l-0.26-1.92c-0.07-0.6-0.33-1.06-0.79-1.46c-0.79-0.6-1.92-0.46-2.78-0.33C11.91,73.06,10.79,73.26,10.19,74.05z"/>
<path d="M16.81,68.69l-8.6-0.2l0.13-5.76h0.99l-0.13,4.7l2.65,0.07l0.13-4.1h0.99l-0.13,4.1l2.98,0.07l0.13-4.7h0.99L16.81,68.69z"
	/>
<path d="M17.6,55.26c0.46,0.79,0.6,1.72,0.4,2.58c-0.13,0.86-0.6,1.72-1.26,2.25c-0.66,0.46-1.46,0.66-2.18,0.53l0.2-1.12
	c0.53,0.07,1.06-0.07,1.46-0.33c0.46-0.4,0.73-0.93,0.86-1.52c0.13-0.53,0.07-1.12-0.2-1.65c-0.2-0.33-0.53-0.53-0.93-0.6
	c-0.66-0.13-1.32,0.2-1.65,1.19c-0.13,0.46-0.33,0.86-0.46,1.32c-0.46,1.19-1.32,2.05-2.71,1.85c-0.66-0.13-1.19-0.53-1.52-1.06
	c-0.86-1.46-0.53-3.38,0.79-4.43c0.6-0.4,1.26-0.6,1.99-0.46l-0.2,1.12c-0.4-0.07-0.79,0-1.12,0.2c-0.93,0.66-1.19,1.99-0.6,2.98
	c0.2,0.26,0.53,0.46,0.86,0.53c0.66,0.07,1.32-0.4,1.46-1.06c0.13-0.46,0.33-0.93,0.46-1.39c0.46-1.39,1.52-2.12,2.85-1.85
	C16.68,54.33,17.27,54.73,17.6,55.26z"/>
<path d="M12.77,47.65l7.15,2.51l-0.33,1.06l-7.15-2.51l-0.86,2.45l-0.99-0.4l2.05-5.89l0.93,0.33L12.77,47.65z"/>
<path d="M23.96,41.56l-2.12-0.33l-1.72,3.31l1.46,1.59l-0.53,0.99l-6.22-6.75l0.6-1.12l9,1.32L23.96,41.56z M16.08,40.37l3.24,3.44
	l1.46-2.71L16.08,40.37z"/>
<path d="M28.79,34.81l-3.84-0.93l-1.46,1.85l2.85,2.18l-0.66,0.86l-6.82-5.29l2.05-2.65c0.46-0.66,1.12-1.12,1.92-1.26
	c0.66-0.07,1.32,0.13,1.79,0.53c0.53,0.4,0.86,0.93,0.93,1.52c0.07,0.4,0,0.79-0.13,1.19l4.04,0.93L28.79,34.81z M21.71,31.5
	l-1.39,1.85l2.38,1.85l1.39-1.85c0.6-0.79,0.73-1.65-0.13-2.32C23.1,30.37,22.3,30.71,21.71,31.5L21.71,31.5z"/>
<path d="M38.45,25.15c-0.2,0.86-0.66,1.65-1.39,2.18c-0.66,0.6-1.59,0.86-2.45,0.79c-0.79-0.07-1.52-0.46-1.99-1.06l0.93-0.66
	c0.33,0.4,0.79,0.66,1.32,0.73c0.6,0,1.19-0.2,1.59-0.6c0.46-0.33,0.86-0.79,0.99-1.32c0.07-0.4,0-0.79-0.26-1.06
	c-0.4-0.53-1.06-0.73-1.99-0.2l-1.19,0.66c-1.12,0.66-2.38,0.66-3.18-0.4c-0.4-0.53-0.53-1.19-0.46-1.79
	c0.13-0.79,0.6-1.59,1.26-2.05c0.66-0.53,1.46-0.79,2.32-0.66c0.73,0.07,1.32,0.4,1.79,0.99l-0.93,0.66
	c-0.26-0.33-0.6-0.53-0.99-0.6c-1.19-0.13-2.25,0.73-2.45,1.85c0,0.33,0.07,0.66,0.26,0.99c0.46,0.53,1.19,0.6,1.79,0.2
	c0.4-0.26,0.86-0.46,1.26-0.66c1.26-0.73,2.58-0.6,3.38,0.53C38.38,23.89,38.51,24.55,38.45,25.15z"/>
<path d="M41.89,23.82l-4.3-7.48l0.99-0.53l4.3,7.48L41.89,23.82z"/>
<path d="M45.99,21.57l-3.31-7.94l0.99-0.4l2.91,7.01l3.84-1.59l0.4,0.93L45.99,21.57z"/>
<path d="M55.59,18.26l-1.12,0.26l-4.96-7.61l1.06-0.26l4.1,6.49l0.46-7.61l1.06-0.26L55.59,18.26z"/>
<path d="M60.29,17.34L59.49,8.8l5.76-0.53l0.07,0.99l-4.63,0.4l0.2,2.58l4.1-0.33l0.07,0.99l-4.1,0.4l0.26,2.98l4.63-0.4l0.07,0.99
	L60.29,17.34z"/>
<path d="M73.65,17.21l-1.32-3.71l-2.38-0.2l-0.26,3.57l-1.06-0.07l0.66-8.6l3.38,0.26c0.79,0,1.59,0.33,2.12,0.93
	c0.4,0.53,0.6,1.12,0.53,1.79c0,0.66-0.33,1.19-0.79,1.65c-0.33,0.26-0.66,0.46-1.06,0.53l1.46,3.9L73.65,17.21z M72.53,9.46
	l-2.32-0.2l-0.2,3.04l2.32,0.2c0.99,0.07,1.79-0.26,1.85-1.39C74.25,9.99,73.59,9.53,72.53,9.46L72.53,9.46z"/>
<path d="M85.83,12.24l-2.32,7.28l-1.06-0.33l2.32-7.28l-2.45-0.79l0.33-0.93l5.96,1.92l-0.33,0.99L85.83,12.24z"/>
<path d="M92.25,23.29l0.13-3.9l-2.12-1.06l-1.65,3.18l-0.99-0.46l3.84-7.68l3.04,1.52c0.73,0.33,1.32,0.93,1.59,1.65
	c0.2,0.6,0.13,1.32-0.2,1.85c-0.26,0.6-0.73,0.99-1.32,1.26c-0.4,0.13-0.79,0.13-1.19,0.07l-0.2,4.17L92.25,23.29z M94.17,15.68
	l-2.05-0.99l-1.39,2.71l2.05,1.06c0.93,0.46,1.72,0.4,2.25-0.6S95.1,16.15,94.17,15.68z"/>
<path d="M99.93,28.59l0.66-2.05l-2.98-2.25l-1.79,1.19l-0.86-0.66l7.61-5.03l0.99,0.73l-2.71,8.74L99.93,28.59z M102.37,20.98
	l-3.9,2.65l2.45,1.85L102.37,20.98z"/>
<path d="M105.95,34.48l2.18-7.81l-5.1,4.7l-0.73-0.79l6.29-5.89l0.79,0.86l-2.18,7.81l5.1-4.76l0.73,0.79l-6.29,5.89L105.95,34.48z"
	/>
<path d="M112.04,41.89c-0.86-0.26-1.59-0.79-2.05-1.59c-0.53-0.73-0.79-1.65-0.66-2.51c0.13-0.79,0.6-1.46,1.26-1.92l0.6,0.93
	c-0.4,0.26-0.73,0.73-0.79,1.26c-0.07,0.6,0.07,1.19,0.46,1.65c0.26,0.53,0.73,0.93,1.26,1.06c0.4,0.13,0.79,0.07,1.06-0.2
	c0.6-0.33,0.79-0.99,0.4-1.99c-0.2-0.46-0.4-0.79-0.6-1.26c-0.53-1.19-0.46-2.45,0.66-3.18c0.53-0.33,1.19-0.46,1.85-0.26
	c0.79,0.2,1.52,0.73,1.92,1.46c0.46,0.66,0.66,1.52,0.53,2.32c-0.13,0.66-0.53,1.32-1.12,1.72l-0.6-0.93
	c0.33-0.26,0.53-0.6,0.66-0.93c0.2-1.12-0.53-2.25-1.65-2.58c-0.33-0.07-0.66,0-0.99,0.2c-0.53,0.4-0.73,1.19-0.33,1.72
	c0.2,0.46,0.4,0.86,0.6,1.32c0.6,1.32,0.4,2.58-0.73,3.31C113.29,41.89,112.63,42.02,112.04,41.89z"/>
<path d="M118.85,48.51c-0.73-0.33-1.26-0.93-1.52-1.65l-0.86-1.99l-3.04,1.32l-0.4-0.99l7.94-3.37l1.26,2.91
	c0.4,0.73,0.4,1.59,0.13,2.32C121.7,48.31,120.24,48.9,118.85,48.51L118.85,48.51z M121.3,45.13l-0.79-1.92l-3.04,1.32l0.79,1.92
	c0.46,1.06,1.19,1.39,2.25,0.93C121.57,46.92,121.7,46.12,121.3,45.13z"/>
<path d="M117.2,57.44l1.79-1.19l-0.93-3.64l-2.12-0.13l-0.26-1.06l9.13,0.79l0.33,1.19l-7.61,5.1L117.2,57.44z M123.88,53.07
	l-4.7-0.4l0.73,2.98L123.88,53.07z"/>
<path d="M118.12,65.91l3.44-1.92l-0.2-2.38l-3.57,0.26l-0.07-1.06l8.6-0.66l0.26,3.38c0.13,0.79-0.07,1.59-0.6,2.25
	c-0.46,0.46-1.06,0.79-1.72,0.79c-0.66,0.07-1.26-0.13-1.72-0.53c-0.26-0.26-0.53-0.6-0.66-0.99l-3.64,1.99L118.12,65.91z
	 M125.6,63.6l-0.2-2.32l-2.98,0.26l0.2,2.25c0.07,0.99,0.53,1.72,1.65,1.65C125.4,65.38,125.67,64.59,125.6,63.6L125.6,63.6z"/>
<path d="M118.12,69.62l8.6,0.79l-0.53,5.76l-0.99-0.07l0.4-4.63l-2.58-0.26l-0.4,4.1l-0.99-0.07l0.4-4.1l-2.98-0.26l-0.4,4.63
	l-0.99-0.07L118.12,69.62z"/>
<path d="M115.74,82.92l7.81-2.25l-6.68-1.85l0.26-0.99l8.34,2.32l-0.33,1.19l-7.81,2.25l6.68,1.85l-0.26,0.99l-8.34-2.32
	L115.74,82.92z"/>
<path d="M112.7,92.05c-0.53-1.72,0.33-3.51,1.99-4.17c1.26-0.46,2.45,0,3.64,0.6s2.32,1.26,2.71,2.51c0.26,0.79,0.2,1.72-0.2,2.51
	c-0.33,0.79-0.99,1.39-1.79,1.65c-0.73,0.26-1.46,0.2-2.12-0.07l0.46-0.99c0.4,0.2,0.86,0.2,1.32,0.07c0.53-0.2,0.99-0.6,1.26-1.12
	c0.26-0.53,0.26-1.12,0.07-1.72c-0.33-0.93-1.39-1.46-2.18-1.85c-0.79-0.4-1.85-0.86-2.85-0.53c-0.53,0.2-0.99,0.6-1.26,1.12
	c-0.26,0.53-0.26,1.12-0.07,1.72c0.2,0.4,0.53,0.73,0.93,0.99l-0.46,0.99C113.49,93.31,112.96,92.71,112.7,92.05z"/>
<path d="M111.71,98.8l-2.85-1.99l0.6-0.93l2.85,1.99l5.82,0.53l-0.73,0.99l-4.63-0.46l2.05,4.17l-0.66,0.93L111.71,98.8z"/>
<path d="M52.28,124.87l0.26-1.19l4.04-3.18c0.33-0.26,0.53-0.6,0.66-0.99c0.13-0.53-0.13-1.06-0.66-1.26c-0.07,0-0.07,0-0.13,0
	c-0.6-0.13-1.19,0.26-1.32,0.86c0,0.07,0,0.07,0,0.13l-1.52-0.33c0.2-1.32,1.46-2.25,2.85-1.99c0.13,0,0.26,0.07,0.33,0.07
	c1.32,0.13,2.25,1.39,2.05,2.65c0,0.07,0,0.13-0.07,0.2c-0.2,0.73-0.66,1.39-1.32,1.85l-2.85,2.25l3.31,0.73L57.64,126L52.28,124.87
	z"/>
<path d="M65.85,126.2c-0.53,0.46-1.26,0.73-1.99,0.66c-0.73,0-1.46-0.33-1.92-0.86c-0.79-0.86-0.86-2.32-0.79-3.71
	s0.33-2.78,1.26-3.57c1.19-0.93,2.85-0.86,3.9,0.26c0.79,0.93,0.86,2.32,0.79,3.71C67.04,124.08,66.77,125.4,65.85,126.2z
	 M64.32,119.45c-1.59-0.07-1.52,1.79-1.59,2.91c-0.07,1.12-0.33,2.98,1.26,3.04c1.59,0.07,1.52-1.79,1.59-2.91
	S65.85,119.58,64.32,119.45z"/>
<path d="M70.08,126.79l-0.13-1.19l2.91-4.17c0.26-0.33,0.33-0.73,0.33-1.12c0-0.53-0.46-0.99-0.99-0.99c-0.07,0-0.13,0-0.13,0
	c-0.6,0.07-1.06,0.6-1.06,1.19c0,0.07,0,0.07,0,0.13l-1.52,0.13c-0.2-1.32,0.73-2.58,2.12-2.78c0.13,0,0.26,0,0.4,0
	c1.32-0.2,2.51,0.66,2.78,1.92c0,0.07,0,0.13,0,0.2c0,0.79-0.26,1.52-0.73,2.12L72,125.21l3.38-0.26l0.13,1.39L70.08,126.79z"/>
<path d="M80.8,125.27l-1.52-6.49l-1.52,1.72l-0.4-1.59l1.72-1.92l1.26-0.26l1.92,8.21L80.8,125.27z"/>
</svg>
